<svg preserveAspectRatio="none" overflow="visible" style="display: block;" width="42" height="42" viewBox="0 0 42 42" fill="none" xmlns="http://www.w3.org/2000/svg">
<g id="Frame" clip-path="url(#clip0_0_70)">
<g id="Union">
<path d="M19.2301 0.0295917C29.5187 -0.480136 36.6541 5.63704 37.6147 15.1525C38.3351 22.2891 33.398 27.7266 30.5307 29.9356L32.892 32.4844H20.7481L23.6154 22.799L26.1454 25.1779C29.5187 22.9689 31.374 20.0802 31.374 15.6623C31.374 11.2444 27.1573 6.48662 21.2541 6.48658C15.3508 6.48658 6.5802 10.5647 6.58018 20.4201C6.58018 32.3145 16.0255 35.543 20.4108 35.543H35.5907L42 42H21.5914C8.26684 42 0.178675 31.9747 0.00221552 20.4201C-0.169031 9.20533 9.61616 0.505927 19.2301 0.0295917Z" fill="#3054EC"/>
<path d="M14.0015 16.1721C14.7466 16.1721 15.3508 16.7807 15.3508 17.5314C15.3508 18.2822 14.7466 18.8907 14.0015 18.8908C13.2563 18.8908 12.6521 18.2822 12.6521 17.5314C12.6522 16.7807 13.2563 16.1721 14.0015 16.1721Z" fill="#3054EC"/>
<path d="M19.0614 16.1721C19.8066 16.1721 20.4107 16.7807 20.4108 17.5314C20.4108 18.2822 19.8066 18.8907 19.0614 18.8908C18.3162 18.8908 17.7121 18.2822 17.7121 17.5314C17.7121 16.7807 18.3162 16.1721 19.0614 16.1721Z" fill="#3054EC"/>
<path d="M24.1214 16.1721C24.8666 16.1721 25.4707 16.7807 25.4707 17.5314C25.4707 18.2822 24.8666 18.8907 24.1214 18.8908C23.3762 18.8908 22.7721 18.2822 22.7721 17.5314C22.7721 16.7807 23.3762 16.1721 24.1214 16.1721Z" fill="#3054EC"/>
</g>
</g>
<defs>
<clipPath id="clip0_0_70">
<rect width="42" height="42" fill="white"/>
</clipPath>
</defs>
</svg>
